<?xml version="1.0" encoding="utf-8"?>
<!-- Generator: Adobe Illustrator 15.1.0, SVG Export Plug-In . SVG Version: 6.00 Build 0)  -->
<!DOCTYPE svg PUBLIC "-//W3C//DTD SVG 1.1//EN" "http://www.w3.org/Graphics/SVG/1.1/DTD/svg11.dtd">
<svg version="1.1" id="Layer_1" xmlns="http://www.w3.org/2000/svg" xmlns:xlink="http://www.w3.org/1999/xlink" x="0px" y="0px"
	 width="157px" height="58.334px" viewBox="0 0 157 58.334" enable-background="new 0 0 157 58.334" xml:space="preserve">
<g>
	
		<rect id="background" x="-279.668" y="-68.817" display="none" fill="#EC008C" stroke="#ED1C24" stroke-miterlimit="10" width="770.667" height="205"/>
	<g enable-background="new    ">
		<path fill="#FFFFFF" d="M57.954,18.164h0.315c1.174,0.259,1.762,0.847,1.762,1.762v7.788c1.521-1.459,3.628-2.188,6.324-2.188
			c2.608,0,4.976,0.989,7.102,2.967c2.027,2.127,3.041,4.519,3.041,7.177c0,3.808-1.799,6.799-5.396,8.975
			c-1.57,0.791-3.085,1.188-4.543,1.188h-0.556c-2.745,0-5.292-1.28-7.64-3.839c-1.446-1.929-2.169-4.197-2.169-6.806V19.926
			C56.192,19.011,56.779,18.423,57.954,18.164z M60.03,35.465v0.353c0,2.621,1.378,4.574,4.135,5.859
			c0.717,0.211,1.373,0.315,1.966,0.315h0.426c2.547,0,4.475-1.372,5.786-4.116c0.21-0.828,0.315-1.466,0.315-1.91v-0.427
			c0-2.608-1.397-4.562-4.191-5.859c-0.853-0.211-1.515-0.315-1.984-0.315h-0.278c-2.547,0-4.476,1.354-5.786,4.061
			C60.16,34.18,60.03,34.859,60.03,35.465z"/>
		<path fill="#FFFFFF" d="M94.726,43.791c-1.744,1.36-3.666,2.04-5.768,2.04h-0.482c-3.066,0-5.724-1.496-7.973-4.488
			c-1.039-1.619-1.559-3.597-1.559-5.934v-7.621c0.148-1.409,0.822-2.114,2.021-2.114c1.199,0.31,1.799,0.89,1.799,1.743v7.436
			c0,2.968,0.822,4.945,2.467,5.935c1.063,0.815,2.236,1.224,3.522,1.224c2.46,0,4.321-1.273,5.582-3.82
			c0.259-0.828,0.39-1.662,0.39-2.503v-8.122c0.246-1.261,0.914-1.892,2.002-1.892c1.212,0.272,1.817,0.896,1.817,1.873v16.541
			c0,0.927-0.605,1.508-1.817,1.743h-0.186c-1.211-0.223-1.816-0.847-1.816-1.873V43.791z"/>
		<path fill="#FFFFFF" d="M112.732,39.211c-0.013-0.247-0.267-0.396-0.761-0.445c-6.255-1.396-9.593-2.287-10.014-2.67
			c-1.273-0.965-1.909-2.157-1.909-3.579c0-1.929,1.347-3.758,4.042-5.489c1.483-0.778,2.948-1.168,4.395-1.168
			c3.388,0,6.063,1.563,8.029,4.691l0.074,0.687v0.111c0,1.051-0.63,1.669-1.892,1.854c-0.84,0-1.619-0.593-2.336-1.78
			c-1.125-1.1-2.418-1.65-3.876-1.65c-1.903,0-3.394,0.891-4.469,2.671l-0.037,0.186c0,0.247,0.531,0.414,1.595,0.5
			c5.315,1.286,8.252,2.034,8.809,2.244c1.52,1.001,2.28,2.269,2.28,3.802v0.056c0,2.113-1.495,4.023-4.487,5.729
			c-1.299,0.581-2.664,0.872-4.098,0.872c-2.968,0-5.471-1.385-7.511-4.154c-0.26-0.371-0.39-0.729-0.39-1.075v-0.408
			c0-1.001,0.68-1.576,2.04-1.725c0.655,0,1.428,0.637,2.317,1.91c1.088,1.014,2.361,1.521,3.82,1.521
			c1.73,0,3.164-0.81,4.303-2.429L112.732,39.211z"/>
		<path fill="#FFFFFF" d="M125.23,35.669l-2.318,1.483v6.861c0,1.001-0.618,1.606-1.854,1.817h-0.111
			c-0.953,0-1.583-0.581-1.893-1.743V19.944c0.26-1.225,0.842-1.836,1.744-1.836h0.334c1.186,0.259,1.779,0.822,1.779,1.688v12.795
			c6.045-4.006,9.668-6.349,10.867-7.028h0.5c1.063,0,1.693,0.661,1.892,1.984c0,0.815-0.841,1.669-2.522,2.559
			c-2.756,1.867-4.463,3.035-5.117,3.505l7.528,9.531l0.111,0.612v0.167c-0.222,1.224-0.853,1.836-1.892,1.836h-0.129
			c-0.742,0-1.713-0.865-2.912-2.597L125.23,35.669z"/>
		<path fill="#FFFFFF" d="M153.49,43.717c-1.508,1.409-3.498,2.114-5.971,2.114h-0.537c-3.412,0-6.256-1.706-8.531-5.118
			c-0.828-1.656-1.242-3.319-1.242-4.988c0-3.733,1.83-6.694,5.489-8.883c1.558-0.729,3.079-1.094,4.562-1.094
			c3.795,0,6.799,1.854,9.013,5.563c0.68,1.521,1.02,3.084,1.02,4.691v8.029c0,0.989-0.605,1.588-1.817,1.799h-0.129
			c-0.842,0-1.465-0.495-1.873-1.483v-0.204L153.49,43.717z M141.029,35.65v0.204c0,2.534,1.273,4.438,3.82,5.711
			c0.791,0.297,1.502,0.445,2.133,0.445h0.537c2.102,0,3.839-1.057,5.211-3.171c0.494-0.989,0.742-1.935,0.742-2.837v-0.278
			c0-2.436-1.205-4.303-3.616-5.601c-0.829-0.371-1.694-0.556-2.597-0.556h-0.074c-2.559,0-4.487,1.335-5.785,4.005
			C141.152,34.39,141.029,35.082,141.029,35.65z"/>
	</g>
	<g>
		<path fill="#FFFFFF" d="M15.177,53.233l-2.27,2.27c-1.014,1.061-2.398,1.45-3.797,0.975c-2.168-0.742-3.438-3.207-2.111-5.26
			l0.017-0.023l6.472-6.473l0.198,0.115c2.99,1.749,6.527,2.229,9.874,1.33c3.323-0.889,6.127-3.043,7.848-6.02
			c1.718-2.979,2.183-6.49,1.292-9.812c-0.891-3.323-3.045-6.129-6.024-7.849c-2.976-1.719-6.488-2.18-9.808-1.291
			c-4.107,1.102-7.319,4.114-8.758,7.937c-0.946,2.513-1.076,5.304-0.383,7.896c0.322,1.203,0.818,2.312,1.444,3.385L3.94,45.642
			c-1.465-2.068-2.568-4.279-3.226-6.733C0.22,37.065,0,34.931,0,33.008C0,24.52,0.001,12.119,0.001,3.633
			c0.031-1.4,0.737-2.583,2.019-3.212C2.54,0.163,3.096,0.025,3.647,0c0.551,0.025,1.107,0.163,1.627,0.421
			c1.282,0.628,1.988,1.812,2.018,3.212c0,3.541,0,10.993,0,14.535c2.246-1.873,4.863-3.227,7.696-3.985
			c5.185-1.39,10.671-0.666,15.319,2.017c4.651,2.686,8.014,7.07,9.405,12.259c1.389,5.183,0.666,10.667-2.016,15.313
			c-2.685,4.654-7.069,8.019-12.259,9.41C22.07,54.085,18.551,54.106,15.177,53.233z"/>
		<path fill="#FFFFFF" d="M10.543,33.683v-0.039c0.021-5.322,4.342-9.631,9.67-9.631v3.125c-4.378,0.506-7.603,3.002-9.612,6.545
			H10.543z"/>
	</g>
</g>
</svg>
